<svg xmlns="http://www.w3.org/2000/svg" fill="none" viewBox="0 0 29 16">
  <path fill="#148948" d="M.762 4.636A.769.769 0 0 0 0 5.408v4.636c0 .426.342.773.762.773s.763-.347.763-.773V5.408a.769.769 0 0 0-.763-.772ZM3.718 2.318a.769.769 0 0 0-.763.773v9.272c0 .426.342.773.763.773.42 0 .762-.347.762-.773V3.09a.769.769 0 0 0-.762-.773ZM6.673 0a.769.769 0 0 0-.763.773V14.68c0 .426.342.773.763.773.42 0 .762-.347.762-.773V.773A.769.769 0 0 0 6.673 0ZM9.626 3.863a.769.769 0 0 0-.763.773v6.181c0 .426.343.773.763.773s.762-.347.762-.773V4.636a.769.769 0 0 0-.762-.773ZM12.58 6.182a.769.769 0 0 0-.762.772V8.5c0 .425.343.772.763.772s.762-.347.762-.772V6.954a.769.769 0 0 0-.762-.772ZM15.762 4.636a.769.769 0 0 0-.762.772v4.636c0 .426.342.773.762.773s.763-.347.763-.773V5.408a.769.769 0 0 0-.762-.772ZM18.718 2.318a.769.769 0 0 0-.763.773v9.272c0 .426.342.773.763.773.42 0 .762-.347.762-.773V3.09a.769.769 0 0 0-.762-.773ZM21.673 0a.769.769 0 0 0-.763.773V14.68c0 .426.342.773.763.773.42 0 .762-.347.762-.773V.773A.769.769 0 0 0 21.673 0ZM24.626 3.863a.769.769 0 0 0-.763.773v6.181c0 .426.343.773.763.773s.762-.347.762-.773V4.636a.769.769 0 0 0-.762-.773ZM27.58 6.182a.769.769 0 0 0-.762.772V8.5c0 .425.343.772.763.772s.762-.347.762-.772V6.954a.769.769 0 0 0-.762-.772Z"/>
</svg>