<svg width="40" height="40" viewBox="0 0 40 40" fill="none" xmlns="http://www.w3.org/2000/svg">
<path fill-rule="evenodd" clip-rule="evenodd" d="M20 0C8.9543 0 0 8.9543 0 20C0 31.0457 8.9543 40 20 40C31.0457 40 40 31.0457 40 20C40 8.9543 31.0457 0 20 0ZM24.0001 28.0005H12.0012C12.0012 29.6569 13.3426 31 14.999 31H23.9992C25.6556 31 26.9987 29.6569 26.9987 28.0005V15.6805C26.9987 15.6193 26.9515 15.5711 26.8902 15.5711H24.1077C24.0491 15.5711 24.0001 15.6201 24.0001 15.6814V28.0005ZM26.9996 13.0013C26.9996 11.3431 25.6565 10 24.001 10H24.0001H14.999C13.3426 10 12.0012 11.344 12.0004 12.9995V25.3195C12.0004 25.379 12.0485 25.4289 12.1097 25.4289H14.8914C14.9517 25.4289 15.0007 25.379 15.0007 25.3195V13.0013H26.9996Z" fill="white"/>
</svg>
