<svg xmlns="http://www.w3.org/2000/svg" fill="none" width="42" height="42" viewBox="0 0 42 42">
  <rect width="42" height="42" fill="#148948" rx="21"/>
  <path fill="#fff" d="M25.21 23.47 27.876 32 21 26.715 14.125 32l2.664-8.53L10 18.25h8.422L21 10l2.578 8.25H32l-6.79 5.22Zm.055 4.792c-.273-.888-.545-1.77-.817-2.643-.272-.88-.551-1.765-.838-2.653.738-.552 1.465-1.107 2.181-1.665.716-.559 1.44-1.117 2.17-1.676h-5.393L21 14.608l-1.568 5.017h-5.393c.73.559 1.454 1.117 2.17 1.676.716.558 1.443 1.113 2.18 1.665-.286.888-.565 1.772-.837 2.653-.272.874-.544 1.755-.817 2.643L21 24.975l4.265 3.287Z"/>
</svg>