<svg width="40" height="40" viewBox="0 0 40 40" fill="none" xmlns="http://www.w3.org/2000/svg">
<path fill-rule="evenodd" clip-rule="evenodd" d="M20 0C8.9543 0 0 8.9543 0 20C0 31.0457 8.9543 40 20 40C31.0457 40 40 31.0457 40 20C40 8.9543 31.0457 0 20 0ZM29.5626 13.8105C30.201 14.472 30.4094 15.9742 30.4094 15.9742C30.4094 15.9742 30.6224 17.7387 30.6224 19.5025V21.1566C30.6224 22.9211 30.4094 24.6849 30.4094 24.6849C30.4094 24.6849 30.201 26.1871 29.5626 26.8487C28.8327 27.6312 28.0234 27.7121 27.566 27.7578C27.5156 27.7628 27.4696 27.7674 27.4284 27.7725C24.4473 27.9932 19.9711 28 19.9711 28C19.9711 28 14.4325 27.9482 12.7283 27.7806C12.6475 27.7652 12.5496 27.7532 12.4388 27.7396C11.899 27.6733 11.0517 27.5693 10.379 26.8487C9.74059 26.1871 9.53289 24.6849 9.53289 24.6849C9.53289 24.6849 9.31987 22.9211 9.31987 21.1566V19.5025C9.31987 17.7387 9.53289 15.9742 9.53289 15.9742C9.53289 15.9742 9.74059 14.472 10.379 13.8105C11.1105 13.0269 11.9206 12.9469 12.3781 12.9017C12.4277 12.8968 12.4732 12.8923 12.5139 12.8874C15.4949 12.6667 19.9665 12.6667 19.9665 12.6667H19.9758C19.9758 12.6667 24.4473 12.6667 27.4284 12.8874C27.4691 12.8923 27.5146 12.8968 27.5642 12.9017C28.0214 12.9469 28.8318 13.027 29.5626 13.8105Z" fill="white"/>
<path fill-rule="evenodd" clip-rule="evenodd" d="M17.4889 22.7817L17.4883 16.7568L23.1521 19.7797L17.4889 22.7817Z" fill="white"/>
</svg>
