<svg class="site__logo site__logo--stacked" xmlns="http://www.w3.org/2000/svg" fill="none" viewBox="0 0 532 186"><path fill="#148948" d="M152.416 77.448c.28.728.42 1.4.42 2.016 0 1.456-.476 2.66-1.428 3.612-.952.896-2.044 1.344-3.276 1.344-1.008 0-1.932-.308-2.772-.924-.784-.616-1.4-1.456-1.848-2.52l-4.368-10.164h-25.032l-4.368 10.248c-.392 1.064-1.008 1.904-1.848 2.52-.784.56-1.652.84-2.604.84-1.456 0-2.576-.392-3.36-1.176-.728-.784-1.092-1.848-1.092-3.192 0-.504.084-1.036.252-1.596l20.916-50.232c.448-1.12 1.12-1.988 2.016-2.604.896-.616 1.904-.868 3.024-.756 1.008 0 1.932.308 2.772.924.896.56 1.54 1.372 1.932 2.436l20.664 49.224Zm-17.388-16.296-8.484-19.656-8.316 19.656h16.8ZM182.46 38.22c1.68 0 3.08.476 4.2 1.428 1.176.952 1.764 2.072 1.764 3.36 0 1.736-.448 3.052-1.344 3.948-.896.84-1.96 1.26-3.192 1.26-.84 0-1.792-.196-2.856-.588-.168-.056-.56-.168-1.176-.336a6.411 6.411 0 0 0-1.848-.252c-1.456 0-2.856.448-4.2 1.344-1.344.896-2.464 2.268-3.36 4.116-.84 1.792-1.26 3.948-1.26 6.468v19.908c0 1.456-.476 2.688-1.428 3.696-.952.952-2.156 1.428-3.612 1.428s-2.66-.476-3.612-1.428c-.952-1.008-1.428-2.24-1.428-3.696V44.184c0-1.456.476-2.66 1.428-3.612.952-1.008 2.156-1.512 3.612-1.512s2.66.504 3.612 1.512c.952.952 1.428 2.156 1.428 3.612v1.092c1.288-2.296 3.136-4.032 5.544-5.208 2.408-1.232 4.984-1.848 7.728-1.848Zm64.898 0c5.544 0 9.38 1.708 11.508 5.124 2.128 3.36 3.192 8.036 3.192 14.028v21.504c0 1.456-.476 2.688-1.428 3.696-.952.952-2.156 1.428-3.612 1.428s-2.66-.476-3.612-1.428c-.952-1.008-1.428-2.24-1.428-3.696V57.372c0-3.08-.616-5.488-1.848-7.224-1.176-1.792-3.276-2.688-6.3-2.688-3.136 0-5.6.952-7.392 2.856-1.736 1.848-2.604 4.2-2.604 7.056v21.504c0 1.456-.476 2.688-1.428 3.696-.952.952-2.156 1.428-3.612 1.428s-2.66-.476-3.612-1.428c-.952-1.008-1.428-2.24-1.428-3.696V57.372c0-3.08-.616-5.488-1.848-7.224-1.176-1.792-3.276-2.688-6.3-2.688-3.136 0-5.6.952-7.392 2.856-1.736 1.848-2.604 4.2-2.604 7.056v21.504c0 1.456-.476 2.688-1.428 3.696-.952.952-2.156 1.428-3.612 1.428s-2.66-.476-3.612-1.428c-.952-1.008-1.428-2.24-1.428-3.696V44.184c0-1.456.476-2.66 1.428-3.612.952-1.008 2.156-1.512 3.612-1.512s2.66.504 3.612 1.512c.952.952 1.428 2.156 1.428 3.612v1.344c1.512-2.016 3.416-3.724 5.712-5.124 2.352-1.456 4.956-2.184 7.812-2.184 7.056 0 11.564 3.08 13.524 9.24 1.288-2.352 3.22-4.48 5.796-6.384 2.632-1.904 5.6-2.856 8.904-2.856Zm23.006 38.808c-.504-.672-.756-1.512-.756-2.52 0-1.456.728-2.688 2.184-3.696.784-.504 1.596-.756 2.436-.756 1.176 0 2.296.532 3.36 1.596 1.68 1.736 3.416 3.024 5.208 3.864 1.848.84 4.06 1.26 6.636 1.26 4.368-.168 6.552-1.82 6.552-4.956 0-1.624-.756-2.856-2.268-3.696-1.456-.84-3.752-1.68-6.888-2.52-3.248-.896-5.908-1.792-7.98-2.688-2.016-.896-3.78-2.24-5.292-4.032-1.456-1.848-2.184-4.312-2.184-7.392 0-2.688.756-5.012 2.268-6.972 1.568-2.016 3.584-3.556 6.048-4.62 2.52-1.12 5.18-1.68 7.98-1.68 2.856 0 5.712.532 8.568 1.596s5.096 2.632 6.72 4.704c.728.896 1.092 1.904 1.092 3.024 0 1.288-.532 2.352-1.596 3.192a4.232 4.232 0 0 1-2.688.924c-1.232 0-2.24-.392-3.024-1.176-1.008-1.232-2.324-2.212-3.948-2.94-1.568-.728-3.36-1.092-5.376-1.092-4.256 0-6.384 1.54-6.384 4.62 0 1.232.392 2.24 1.176 3.024.784.728 1.764 1.316 2.94 1.764 1.232.392 2.94.896 5.124 1.512 3.024.84 5.544 1.708 7.56 2.604 2.016.896 3.724 2.268 5.124 4.116 1.4 1.848 2.1 4.284 2.1 7.308 0 2.744-.812 5.152-2.436 7.224-1.624 2.016-3.724 3.556-6.3 4.62a19.894 19.894 0 0 1-7.812 1.596c-3.696 0-7.14-.616-10.332-1.848-3.192-1.232-5.796-3.22-7.812-5.964Zm64.799-2.52c.784 0 1.484.392 2.1 1.176.672.728 1.008 1.708 1.008 2.94 0 1.512-.84 2.8-2.52 3.864-1.624 1.008-3.472 1.512-5.544 1.512-3.472 0-6.412-.728-8.82-2.184-2.352-1.512-3.528-4.676-3.528-9.492V49.14h-3.864c-1.344 0-2.464-.448-3.36-1.344-.896-.896-1.344-2.016-1.344-3.36 0-1.288.448-2.352 1.344-3.192.896-.896 2.016-1.344 3.36-1.344h3.864v-5.376c0-1.456.476-2.66 1.428-3.612 1.008-1.008 2.24-1.512 3.696-1.512 1.4 0 2.576.504 3.528 1.512.952.952 1.428 2.156 1.428 3.612V39.9h5.964c1.344 0 2.464.448 3.36 1.344.896.896 1.344 2.016 1.344 3.36 0 1.288-.448 2.38-1.344 3.276-.896.84-2.016 1.26-3.36 1.26h-5.964v22.764c0 1.176.308 2.044.924 2.604.616.504 1.456.756 2.52.756.448 0 1.064-.112 1.848-.336.672-.28 1.316-.42 1.932-.42Zm36.051-36.288c1.68 0 3.08.476 4.2 1.428 1.176.952 1.764 2.072 1.764 3.36 0 1.736-.448 3.052-1.344 3.948-.896.84-1.96 1.26-3.192 1.26-.84 0-1.792-.196-2.856-.588-.168-.056-.56-.168-1.176-.336a6.411 6.411 0 0 0-1.848-.252c-1.456 0-2.856.448-4.2 1.344-1.344.896-2.464 2.268-3.36 4.116-.84 1.792-1.26 3.948-1.26 6.468v19.908c0 1.456-.476 2.688-1.428 3.696-.952.952-2.156 1.428-3.612 1.428s-2.66-.476-3.612-1.428c-.952-1.008-1.428-2.24-1.428-3.696V44.184c0-1.456.476-2.66 1.428-3.612.952-1.008 2.156-1.512 3.612-1.512s2.66.504 3.612 1.512c.952.952 1.428 2.156 1.428 3.612v1.092c1.288-2.296 3.136-4.032 5.544-5.208 2.408-1.232 4.984-1.848 7.728-1.848Zm54.36 23.352c0 4.48-1.008 8.512-3.024 12.096-2.016 3.528-4.788 6.272-8.316 8.232-3.472 1.96-7.308 2.94-11.508 2.94-4.256 0-8.12-.98-11.592-2.94-3.472-1.96-6.216-4.704-8.232-8.232-2.016-3.584-3.024-7.616-3.024-12.096s1.008-8.484 3.024-12.012c2.016-3.584 4.76-6.356 8.232-8.316 3.472-2.016 7.336-3.024 11.592-3.024 4.2 0 8.036 1.008 11.508 3.024 3.528 1.96 6.3 4.732 8.316 8.316 2.016 3.528 3.024 7.532 3.024 12.012Zm-10.08 0c0-2.744-.588-5.18-1.764-7.308-1.12-2.184-2.66-3.864-4.62-5.04-1.904-1.176-4.032-1.764-6.384-1.764-2.352 0-4.508.588-6.468 1.764-1.904 1.176-3.444 2.856-4.62 5.04-1.12 2.128-1.68 4.564-1.68 7.308 0 2.744.56 5.18 1.68 7.308 1.176 2.128 2.716 3.78 4.62 4.956 1.96 1.176 4.116 1.764 6.468 1.764 2.352 0 4.48-.588 6.384-1.764 1.96-1.176 3.5-2.828 4.62-4.956 1.176-2.128 1.764-4.564 1.764-7.308Zm42.525-23.352c5.712 0 9.66 1.708 11.844 5.124 2.184 3.36 3.276 8.036 3.276 14.028v21.504c0 1.456-.476 2.688-1.428 3.696-.952.952-2.156 1.428-3.612 1.428s-2.66-.476-3.612-1.428c-.952-1.008-1.428-2.24-1.428-3.696V57.372c0-3.08-.644-5.488-1.932-7.224-1.288-1.792-3.5-2.688-6.636-2.688-3.248 0-5.796.952-7.644 2.856-1.848 1.848-2.772 4.2-2.772 7.056v21.504c0 1.456-.476 2.688-1.428 3.696-.952.952-2.156 1.428-3.612 1.428s-2.66-.476-3.612-1.428c-.952-1.008-1.428-2.24-1.428-3.696V44.184c0-1.456.476-2.66 1.428-3.612.952-1.008 2.156-1.512 3.612-1.512s2.66.504 3.612 1.512c.952.952 1.428 2.156 1.428 3.612v1.428c1.512-2.016 3.472-3.752 5.88-5.208 2.464-1.456 5.152-2.184 8.064-2.184Zm63.227 0c1.456 0 2.66.476 3.612 1.428s1.428 2.184 1.428 3.696v37.38c0 6.832-2.128 11.872-6.384 15.12-4.2 3.304-9.548 4.956-16.044 4.956-1.68 0-4.004-.28-6.972-.84-2.912-.56-4.984-1.12-6.216-1.68-2.744-1.176-4.116-2.8-4.116-4.872 0-.392.084-.84.252-1.344.336-1.232.896-2.184 1.68-2.856.84-.616 1.736-.924 2.688-.924.56 0 1.092.084 1.596.252.224.056 1.596.56 4.116 1.512 2.576 1.008 4.9 1.512 6.972 1.512 4.144 0 7.224-.84 9.24-2.52 2.072-1.624 3.108-3.948 3.108-6.972v-4.032c-1.232 1.736-3.108 3.304-5.628 4.704-2.464 1.4-5.124 2.1-7.98 2.1-3.92 0-7.504-.98-10.752-2.94-3.192-2.016-5.712-4.788-7.56-8.316-1.848-3.528-2.772-7.532-2.772-12.012s.896-8.484 2.688-12.012c1.848-3.584 4.34-6.356 7.476-8.316 3.192-2.016 6.72-3.024 10.584-3.024 2.856 0 5.516.588 7.98 1.764 2.464 1.176 4.452 2.604 5.964 4.284v-.924c0-1.456.476-2.66 1.428-3.612.952-1.008 2.156-1.512 3.612-1.512ZM503.858 75.6c3.752 0 6.804-1.316 9.156-3.948 2.408-2.688 3.612-6.048 3.612-10.08s-1.204-7.392-3.612-10.08c-2.352-2.688-5.404-4.032-9.156-4.032-3.752 0-6.804 1.344-9.156 4.032-2.352 2.688-3.528 6.048-3.528 10.08s1.176 7.392 3.528 10.08c2.352 2.632 5.404 3.948 9.156 3.948Z"></path><path fill="#222" d="M142.888 106.2c1.568 0 2.828.476 3.78 1.428s1.428 2.184 1.428 3.696v48.552c0 1.456-.504 2.688-1.512 3.696-1.008.952-2.296 1.428-3.864 1.428-1.4 0-2.604-.476-3.612-1.428-1.008-1.008-1.512-2.24-1.512-3.696v-19.572H110.8v19.572c0 1.456-.532 2.688-1.596 3.696-1.064.952-2.296 1.428-3.696 1.428-1.512 0-2.772-.476-3.78-1.428-.952-1.008-1.428-2.24-1.428-3.696v-48.552c0-1.456.504-2.66 1.512-3.612 1.008-1.008 2.296-1.512 3.864-1.512 1.4 0 2.604.504 3.612 1.512 1.008.952 1.512 2.156 1.512 3.612v19.32h26.796v-19.32c0-1.456.532-2.66 1.596-3.612 1.064-1.008 2.296-1.512 3.696-1.512Zm57.267 35.28c-.056 1.344-.588 2.436-1.596 3.276-1.008.84-2.184 1.26-3.528 1.26h-27.72c.672 3.304 2.212 5.908 4.62 7.812 2.408 1.848 5.124 2.772 8.148 2.772 2.296 0 4.088-.196 5.376-.588 1.288-.448 2.296-.896 3.024-1.344.784-.504 1.316-.84 1.596-1.008 1.008-.504 1.96-.756 2.856-.756 1.176 0 2.184.42 3.024 1.26.84.84 1.26 1.82 1.26 2.94 0 1.512-.784 2.884-2.352 4.116-1.568 1.288-3.668 2.38-6.3 3.276-2.632.896-5.292 1.344-7.98 1.344-4.704 0-8.82-.98-12.348-2.94-3.472-1.96-6.16-4.648-8.064-8.064-1.904-3.472-2.856-7.364-2.856-11.676 0-4.816 1.008-9.044 3.024-12.684 2.016-3.64 4.676-6.412 7.98-8.316 3.304-1.96 6.832-2.94 10.584-2.94 3.696 0 7.168 1.008 10.416 3.024 3.304 2.016 5.936 4.732 7.896 8.148 1.96 3.416 2.94 7.112 2.94 11.088Zm-21.252-13.02c-6.496 0-10.332 3.052-11.508 9.156h22.008v-.588c-.224-2.352-1.372-4.368-3.444-6.048-2.072-1.68-4.424-2.52-7.056-2.52Zm66.359-9.24c1.456 0 2.66.476 3.612 1.428s1.428 2.184 1.428 3.696v35.532c0 1.456-.476 2.688-1.428 3.696-.952.952-2.156 1.428-3.612 1.428s-2.66-.476-3.612-1.428c-.896-.952-1.372-2.156-1.428-3.612-1.4 1.624-3.304 3.024-5.712 4.2a17.174 17.174 0 0 1-7.476 1.68c-3.864 0-7.364-.98-10.5-2.94-3.136-2.016-5.628-4.788-7.476-8.316-1.792-3.528-2.688-7.532-2.688-12.012s.896-8.484 2.688-12.012c1.792-3.584 4.228-6.356 7.308-8.316 3.136-2.016 6.58-3.024 10.332-3.024 2.688 0 5.208.504 7.56 1.512 2.352.952 4.34 2.184 5.964 3.696v-.084c0-1.456.476-2.66 1.428-3.612.952-1.008 2.156-1.512 3.612-1.512Zm-16.968 37.38c3.64 0 6.608-1.316 8.904-3.948 2.296-2.688 3.444-6.048 3.444-10.08s-1.148-7.392-3.444-10.08c-2.296-2.688-5.264-4.032-8.904-4.032-3.584 0-6.524 1.344-8.82 4.032-2.296 2.688-3.444 6.048-3.444 10.08s1.12 7.392 3.36 10.08c2.296 2.632 5.264 3.948 8.904 3.948Zm56.284-37.38c1.68 0 3.08.476 4.2 1.428 1.176.952 1.764 2.072 1.764 3.36 0 1.736-.448 3.052-1.344 3.948-.896.84-1.96 1.26-3.192 1.26-.84 0-1.792-.196-2.856-.588-.168-.056-.56-.168-1.176-.336a6.411 6.411 0 0 0-1.848-.252c-1.456 0-2.856.448-4.2 1.344-1.344.896-2.464 2.268-3.36 4.116-.84 1.792-1.26 3.948-1.26 6.468v19.908c0 1.456-.476 2.688-1.428 3.696-.952.952-2.156 1.428-3.612 1.428s-2.66-.476-3.612-1.428c-.952-1.008-1.428-2.24-1.428-3.696v-34.692c0-1.456.476-2.66 1.428-3.612.952-1.008 2.156-1.512 3.612-1.512s2.66.504 3.612 1.512c.952.952 1.428 2.156 1.428 3.612v1.092c1.288-2.296 3.136-4.032 5.544-5.208 2.408-1.232 4.984-1.848 7.728-1.848Zm22.562 40.656c0 1.456-.476 2.688-1.428 3.696-.952.952-2.156 1.428-3.612 1.428s-2.66-.476-3.612-1.428c-.952-1.008-1.428-2.24-1.428-3.696v-34.692c0-1.456.476-2.66 1.428-3.612.952-1.008 2.156-1.512 3.612-1.512s2.66.504 3.612 1.512c.952.952 1.428 2.156 1.428 3.612v34.692Zm-5.124-45.276c-1.904 0-3.248-.308-4.032-.924-.784-.616-1.176-1.708-1.176-3.276v-1.596c0-1.568.42-2.66 1.26-3.276.84-.616 2.184-.924 4.032-.924 1.96 0 3.332.308 4.116.924.784.616 1.176 1.708 1.176 3.276v1.596c0 1.624-.42 2.744-1.26 3.36-.784.56-2.156.84-4.116.84Zm39.507 4.62c5.712 0 9.66 1.708 11.844 5.124 2.184 3.36 3.276 8.036 3.276 14.028v21.504c0 1.456-.476 2.688-1.428 3.696-.952.952-2.156 1.428-3.612 1.428s-2.66-.476-3.612-1.428c-.952-1.008-1.428-2.24-1.428-3.696v-21.504c0-3.08-.644-5.488-1.932-7.224-1.288-1.792-3.5-2.688-6.636-2.688-3.248 0-5.796.952-7.644 2.856-1.848 1.848-2.772 4.2-2.772 7.056v21.504c0 1.456-.476 2.688-1.428 3.696-.952.952-2.156 1.428-3.612 1.428s-2.66-.476-3.612-1.428c-.952-1.008-1.428-2.24-1.428-3.696v-34.692c0-1.456.476-2.66 1.428-3.612.952-1.008 2.156-1.512 3.612-1.512s2.66.504 3.612 1.512c.952.952 1.428 2.156 1.428 3.612v1.428c1.512-2.016 3.472-3.752 5.88-5.208 2.464-1.456 5.152-2.184 8.064-2.184Zm63.227 0c1.456 0 2.66.476 3.612 1.428s1.428 2.184 1.428 3.696v37.38c0 6.832-2.128 11.872-6.384 15.12-4.2 3.304-9.548 4.956-16.044 4.956-1.68 0-4.004-.28-6.972-.84-2.912-.56-4.984-1.12-6.216-1.68-2.744-1.176-4.116-2.8-4.116-4.872 0-.392.084-.84.252-1.344.336-1.232.896-2.184 1.68-2.856.84-.616 1.736-.924 2.688-.924.56 0 1.092.084 1.596.252.224.056 1.596.56 4.116 1.512 2.576 1.008 4.9 1.512 6.972 1.512 4.144 0 7.224-.84 9.24-2.52 2.072-1.624 3.108-3.948 3.108-6.972v-4.032c-1.232 1.736-3.108 3.304-5.628 4.704-2.464 1.4-5.124 2.1-7.98 2.1-3.92 0-7.504-.98-10.752-2.94-3.192-2.016-5.712-4.788-7.56-8.316-1.848-3.528-2.772-7.532-2.772-12.012s.896-8.484 2.688-12.012c1.848-3.584 4.34-6.356 7.476-8.316 3.192-2.016 6.72-3.024 10.584-3.024 2.856 0 5.516.588 7.98 1.764 2.464 1.176 4.452 2.604 5.964 4.284v-.924c0-1.456.476-2.66 1.428-3.612.952-1.008 2.156-1.512 3.612-1.512Zm-17.388 37.38c3.752 0 6.804-1.316 9.156-3.948 2.408-2.688 3.612-6.048 3.612-10.08s-1.204-7.392-3.612-10.08c-2.352-2.688-5.404-4.032-9.156-4.032-3.752 0-6.804 1.344-9.156 4.032-2.352 2.688-3.528 6.048-3.528 10.08s1.176 7.392 3.528 10.08c2.352 2.632 5.404 3.948 9.156 3.948Z"></path><path fill="#148948" d="M4.54 39.6C2.036 39.6 0 41.665 0 44.2v27.6c0 2.536 2.037 4.6 4.54 4.6 2.502 0 4.539-2.064 4.539-4.6V44.2c0-2.535-2.037-4.6-4.54-4.6ZM77.171 48.8c-2.502 0-4.54 2.064-4.54 4.6v9.2c0 2.535 2.038 4.6 4.54 4.6 2.502 0 4.54-2.065 4.54-4.6v-9.2c0-2.536-2.038-4.6-4.54-4.6ZM59.013 35c-2.502 0-4.54 2.064-4.54 4.6v36.8c0 2.535 2.038 4.6 4.54 4.6 2.502 0 4.54-2.065 4.54-4.6V39.6c0-2.536-2.038-4.6-4.54-4.6ZM40.855 12c-2.502 0-4.54 2.065-4.54 4.6v82.8c0 2.535 2.038 4.6 4.54 4.6 2.502 0 4.54-2.065 4.54-4.6V16.6c0-2.535-2.038-4.6-4.54-4.6ZM22.697 25.8c-2.502 0-4.539 2.065-4.539 4.6v55.2c0 2.536 2.037 4.6 4.54 4.6 2.502 0 4.539-2.064 4.539-4.6V30.4c0-2.535-2.037-4.6-4.54-4.6Z"></path></svg>