<svg width="249.664" height="92.402" viewBox="0 0 249.664 92.402" xmlns="http://www.w3.org/2000/svg"><g id="svgGroup" stroke-linecap="round" fill-rule="evenodd" font-size="9pt" stroke="#fff" stroke-width="0.25mm" fill="white" style="stroke:#fff;stroke-width:0.25mm;fill:white"><path d="M 104.622 73.32 L 99.076 45.308 Q 98.755 43.702 98.521 41.524 A 76.828 76.828 0 0 1 98.324 39.386 Q 98.042 35.814 98.042 33.37 L 97.666 33.37 A 37.953 37.953 0 0 1 97.622 35.13 Q 97.579 36.039 97.496 37.079 A 87.802 87.802 0 0 1 97.29 39.292 A 101.852 101.852 0 0 1 96.995 41.812 Q 96.866 42.796 96.729 43.67 A 49.461 49.461 0 0 1 96.444 45.308 L 90.428 73.32 L 70.97 73.32 L 57.528 20.962 L 62.134 20.962 L 74.448 68.808 L 86.762 68.808 L 95.692 28.858 L 100.204 28.858 L 108.288 68.808 L 119.568 68.808 L 132.352 20.962 L 137.052 20.962 L 122.952 73.32 L 104.622 73.32 Z M 112.706 65.8 L 103.212 25.474 L 92.214 25.474 L 83.378 65.8 L 79.242 65.8 L 69.56 20.962 L 74.166 20.962 L 80.276 50.008 A 8.009 8.009 0 0 1 80.411 50.604 Q 80.543 51.293 80.65 52.312 A 44.227 44.227 0 0 1 80.746 53.345 Q 80.934 55.648 81.075 57.951 A 135.756 135.756 0 0 1 81.137 59.023 Q 81.212 60.438 81.216 61.209 A 16.225 16.225 0 0 1 81.216 61.288 L 81.592 61.288 Q 81.592 60.422 81.672 58.401 A 257.852 257.852 0 0 1 81.686 58.045 Q 81.78 55.742 81.968 53.439 Q 82.141 51.318 82.314 50.353 A 8.073 8.073 0 0 1 82.344 50.196 L 88.548 20.962 L 106.784 20.962 L 113.552 50.572 A 14.539 14.539 0 0 1 113.719 51.423 Q 113.868 52.31 113.985 53.508 A 49.125 49.125 0 0 1 114.022 53.909 Q 114.21 56.024 114.304 58.092 Q 114.376 59.675 114.393 60.708 A 35.737 35.737 0 0 1 114.398 61.288 L 114.68 61.288 Q 114.752 60.424 114.824 58.982 A 172.711 172.711 0 0 0 114.868 58.045 Q 114.962 55.93 115.15 53.815 Q 115.305 52.072 115.46 50.999 A 19.995 19.995 0 0 1 115.526 50.572 L 121.354 20.962 L 125.866 20.962 L 116.936 65.8 L 112.706 65.8 Z M 192.512 69.748 L 191.478 73.884 Q 189.128 74.448 186.684 74.448 A 19.128 19.128 0 0 1 182.038 73.901 A 16.43 16.43 0 0 1 179.164 72.897 Q 176.348 71.607 175.29 69.438 A 6.015 6.015 0 0 1 174.934 68.526 A 12.266 12.266 0 0 1 170.986 71.74 A 17.5 17.5 0 0 1 167.555 73.085 A 36.78 36.78 0 0 1 159.897 74.363 A 43.087 43.087 0 0 1 157.168 74.448 A 26.544 26.544 0 0 1 152.546 74.072 Q 149.989 73.619 147.971 72.621 A 12.597 12.597 0 0 1 144.995 70.594 A 12.958 12.958 0 0 1 141.021 63.227 A 18.611 18.611 0 0 1 140.718 60.066 L 140.718 59.784 Q 140.718 52.358 145.089 47.94 Q 149.46 43.522 158.954 41.454 A 60.734 60.734 0 0 0 162.205 40.704 Q 163.732 40.304 165.014 39.864 A 25.059 25.059 0 0 0 167.085 39.057 Q 170.14 37.694 170.14 36.096 A 5.401 5.401 0 0 0 170.049 35.065 Q 169.776 33.664 168.683 33.135 A 4.86 4.86 0 0 0 167.74 32.81 Q 166.202 32.43 163.372 32.43 A 10.929 10.929 0 0 0 161.702 32.569 Q 160.863 32.699 159.92 32.951 A 24.516 24.516 0 0 0 158.39 33.417 Q 155.476 34.404 152.75 36.096 A 17.444 17.444 0 0 0 150.01 38.178 A 14.385 14.385 0 0 0 148.332 40.044 L 145.982 35.908 Q 149.836 32.054 154.724 29.986 A 31.685 31.685 0 0 1 158.162 28.746 Q 160.993 27.918 163.372 27.918 Q 170.328 27.918 172.49 29.939 Q 174.317 31.646 174.6 34.864 A 14.054 14.054 0 0 1 174.652 36.096 A 3.711 3.711 0 0 1 174.208 37.778 Q 173.36 39.448 170.892 41.36 Q 167.132 44.274 159.894 45.872 A 37.05 37.05 0 0 0 155.625 46.986 Q 153.514 47.684 151.84 48.586 A 14.994 14.994 0 0 0 148.849 50.666 A 10.795 10.795 0 0 0 145.489 56.847 A 15.883 15.883 0 0 0 145.23 59.784 L 145.23 59.972 A 12.099 12.099 0 0 0 145.686 63.138 A 8.637 8.637 0 0 0 148.426 67.398 Q 151.04 69.616 155.455 69.965 A 21.741 21.741 0 0 0 157.168 70.03 A 57.038 57.038 0 0 0 161.585 69.865 A 48.059 48.059 0 0 0 164.077 69.607 A 16.909 16.909 0 0 0 169.704 67.81 A 19.545 19.545 0 0 0 170.375 67.445 A 16.175 16.175 0 0 0 172.992 65.56 Q 174.168 64.534 175.337 63.19 A 32.568 32.568 0 0 0 176.438 61.852 Q 177.038 64.85 178.285 66.663 A 6.362 6.362 0 0 0 180.433 68.667 Q 183.394 70.312 186.778 70.312 Q 188.282 70.312 189.739 70.124 Q 191.196 69.936 192.512 69.748 Z M 244.87 21.056 L 249.664 21.056 L 231.992 74.542 Q 229.245 82.863 223.791 87.053 A 19.072 19.072 0 0 1 221.934 88.313 Q 215.072 92.402 203.416 92.402 L 202.1 87.984 A 68.426 68.426 0 0 0 207.487 87.704 Q 210.766 87.396 213.568 86.762 Q 218.55 85.634 222.122 82.485 A 16.081 16.081 0 0 0 225.12 78.882 Q 226.198 77.15 227.042 74.986 A 31.281 31.281 0 0 0 227.668 73.226 L 244.87 21.056 Z M 194.674 60.724 L 193.64 64.954 A 20.236 20.236 0 0 1 192.679 65.069 A 17.906 17.906 0 0 1 192.371 65.095 A 15.82 15.82 0 0 1 191.481 65.139 A 13.965 13.965 0 0 1 191.196 65.142 Q 188.304 65.142 186.4 64.085 A 6.3 6.3 0 0 1 184.945 62.98 A 7.168 7.168 0 0 1 183.103 59.554 Q 182.834 58.427 182.83 57.1 A 13.299 13.299 0 0 1 182.83 57.058 L 182.83 37.13 A 15.791 15.791 0 0 0 182.407 33.35 A 9.818 9.818 0 0 0 178.271 27.307 A 15.272 15.272 0 0 0 174.261 25.453 Q 170.502 24.29 165.13 24.253 A 51.454 51.454 0 0 0 164.782 24.252 A 38.222 38.222 0 0 0 158.954 24.675 A 28.092 28.092 0 0 0 153.173 26.179 A 25.584 25.584 0 0 0 145.322 31.003 A 30.092 30.092 0 0 0 144.008 32.242 L 141.846 28.388 A 25.416 25.416 0 0 1 149.994 22.589 A 29.977 29.977 0 0 1 151.387 21.996 Q 157.074 19.74 164.782 19.74 A 48.216 48.216 0 0 1 170.764 20.086 Q 177.498 20.93 181.437 23.837 A 14.24 14.24 0 0 1 181.796 24.111 Q 187.342 28.482 187.342 37.13 L 187.342 57.058 A 4.909 4.909 0 0 0 187.462 58.182 Q 187.64 58.938 188.081 59.466 A 2.817 2.817 0 0 0 188.705 60.019 A 5.237 5.237 0 0 0 190.434 60.735 Q 191.215 60.912 192.136 60.912 A 16.805 16.805 0 0 0 193.232 60.877 A 15.103 15.103 0 0 0 193.405 60.865 A 19.039 19.039 0 0 0 194.348 60.768 A 21.499 21.499 0 0 0 194.674 60.724 Z M 32.43 73.32 L 32.43 9.776 L 56.494 9.776 L 56.494 14.288 L 36.942 14.288 L 36.942 73.32 L 32.43 73.32 Z M 19.458 73.32 L 19.458 14.288 L 0 14.288 L 0 9.776 L 23.97 9.776 L 23.97 73.32 L 19.458 73.32 Z M 195.802 21.056 L 200.596 21.056 L 221.84 70.97 Q 220.242 74.824 218.597 77.221 Q 216.952 79.618 214.743 80.84 A 12.49 12.49 0 0 1 212.585 81.765 Q 211.054 82.268 209.15 82.532 A 48.941 48.941 0 0 1 206.487 82.821 Q 203.908 83.036 200.596 83.096 L 199.186 78.49 Q 205.296 78.49 208.633 78.02 A 13.819 13.819 0 0 0 210.733 77.567 Q 211.829 77.233 212.689 76.727 A 6.669 6.669 0 0 0 213.756 75.952 Q 215.045 74.799 216.089 72.715 A 20.407 20.407 0 0 0 216.858 70.97 L 195.802 21.056 Z M 223.25 59.22 L 208.21 21.056 L 213.098 21.056 L 221.37 42.112 A 59.317 59.317 0 0 1 222.095 44.027 Q 222.715 45.749 223.391 47.893 A 43.134 43.134 0 0 1 224.296 51.195 A 31.814 31.814 0 0 1 224.848 54.238 L 225.036 54.238 A 70.163 70.163 0 0 1 226.11 48.702 A 77.154 77.154 0 0 1 226.305 47.893 A 248.714 248.714 0 0 1 226.884 45.586 Q 227.118 44.678 227.337 43.856 A 134.059 134.059 0 0 1 227.762 42.3 L 233.684 21.056 L 238.384 21.056 L 227.574 59.22 L 223.25 59.22 Z M 0 4.512 L 0 0 L 56.494 0 L 56.494 4.512 L 0 4.512 Z M 175.122 40.89 L 175.122 56.588 Q 174.37 59.69 172.161 61.993 A 15.564 15.564 0 0 1 167.19 65.513 A 15.683 15.683 0 0 1 167.179 65.518 A 14.87 14.87 0 0 1 164.272 66.471 A 12.006 12.006 0 0 1 161.774 66.74 A 16.731 16.731 0 0 1 159.081 66.538 Q 156.104 66.052 154.442 64.39 A 7.913 7.913 0 0 1 152.175 59.64 A 10.875 10.875 0 0 1 152.092 58.28 A 14.096 14.096 0 0 1 152.332 55.587 Q 152.63 54.058 153.298 52.878 A 6.956 6.956 0 0 1 154.583 51.23 A 11.431 11.431 0 0 1 157.095 49.465 Q 159.096 48.404 161.868 47.752 Q 164.124 47.188 167.602 46.013 A 13.891 13.891 0 0 0 170.29 44.742 Q 171.551 43.985 172.878 42.904 A 33.579 33.579 0 0 0 175.122 40.89 Z M 170.61 56.212 L 170.61 48.41 Q 168.587 50.18 164.147 51.496 A 41.461 41.461 0 0 1 163.09 51.794 A 25.015 25.015 0 0 0 161.29 52.349 Q 159.189 53.091 158.108 54.003 A 3.77 3.77 0 0 0 157.035 55.559 Q 156.792 56.184 156.686 56.967 A 9.808 9.808 0 0 0 156.604 58.28 Q 156.604 62.228 161.774 62.228 A 9.339 9.339 0 0 0 164.944 61.65 A 13.009 13.009 0 0 0 167.179 60.583 A 8.39 8.39 0 0 0 169.023 59.133 A 6.377 6.377 0 0 0 170.61 56.212 Z" vector-effect="non-scaling-stroke"/></g></svg>