<?xml version="1.0" encoding="utf-8"?><!--Generator: Adobe Illustrator 25.3.0, SVG Export Plug-In . SVG Version: 6.00 Build 0)--><svg version="1.1" xmlns="http://www.w3.org/2000/svg" xmlns:xlink="http://www.w3.org/1999/xlink" x="0px" y="0px" viewBox="0 0 192 50" style="enable-background:new 0 0 192 50" xml:space="preserve"><style type="text/css">.st0{display:none;}
	.st1{display:inline;}
	.st2{fill:#FFFFFF;}
	.st3{fill:#A0A0A0;}
	.st4{fill:#010101;}
	.st5{fill:none;stroke:#010101;stroke-width:3;stroke-miterlimit:10;}
	.st6{fill:none;stroke:#FFFFFF;stroke-width:3;stroke-miterlimit:10;}
	.st7{display:inline;fill:#FFFFFF;}</style><g id="Layer_5" class="st0"/><g id="Stacked"/><g id="Layer_2"/><g id="Layer_1"><g id="XMLID_13_"><g><path class="st2" d="M64.02,6.77h3.06c0.11,0,0.22,0.07,0.26,0.17l3.28,7.67c0.1,0.23,0.42,0.23,0.52,0l3.28-7.67
				c0.04-0.1,0.15-0.17,0.26-0.17h3.03c0.2,0,0.34,0.21,0.26,0.39l-5.86,13.77c-0.04,0.1-0.15,0.17-0.26,0.17h-1.95
				c-0.11,0-0.22-0.07-0.26-0.17L63.76,7.16C63.69,6.98,63.82,6.77,64.02,6.77z"/><path class="st2" d="M90.86,19.59c-1.27,1.24-2.62,1.89-4.43,1.89c-3.64,0-6.83-3.13-6.83-7.53c0-4.48,3.02-7.56,6.75-7.56
				c1.73,0,3.21,0.65,4.51,1.94V7.05c0-0.16,0.13-0.28,0.28-0.28h3.03c0.16,0,0.28,0.13,0.28,0.28v13.77c0,0.16-0.13,0.28-0.28,0.28
				h-3.03c-0.16,0-0.28-0.13-0.28-0.28V19.59z M83.22,13.92c0,2.46,1.62,4.26,3.86,4.26c2.21,0,3.94-1.67,3.94-4.29
				c0-2.51-1.67-4.21-3.94-4.21C84.71,9.69,83.22,11.58,83.22,13.92z"/><path class="st2" d="M101.66,8.23c1.38-1.16,2.65-1.83,4.24-1.83c2.67,0,4.91,1.83,4.91,4.91v9.52c0,0.16-0.13,0.28-0.28,0.28
				h-3.03c-0.16,0-0.28-0.13-0.28-0.28v-6.49c0-2.83-0.24-4.64-2.43-4.64c-1,0-1.86,0.49-2.43,1.38c-0.73,1.16-0.7,2.46-0.7,3.94
				v5.82c0,0.16-0.13,0.28-0.28,0.28h-3.03c-0.16,0-0.28-0.13-0.28-0.28V7.05c0-0.16,0.13-0.28,0.28-0.28h3.03
				c0.16,0,0.28,0.13,0.28,0.28V8.23z"/><path class="st2" d="M126.95,21.1h-3.03c-0.16,0-0.28-0.13-0.28-0.28v-6.66c0-2.78-0.54-4.48-2.54-4.48
				c-1.78,0-3.08,1.46-3.08,4.4v6.74c0,0.16-0.13,0.28-0.28,0.28h-3.03c-0.16,0-0.28-0.13-0.28-0.28V7.05
				c0-0.16,0.13-0.28,0.28-0.28h3.03c0.16,0,0.28,0.13,0.28,0.28v1.36c1.21-1.32,2.78-2.02,4.48-2.02c1.65,0,3.08,0.72,3.98,2.21
				c0.1,0.17,0.33,0.19,0.46,0.04c1.24-1.47,2.53-2.25,4.55-2.25c1.59,0,3.02,0.65,3.83,1.67c0.94,1.19,1.05,2.75,1.05,4.64v8.11
				c0,0.16-0.13,0.28-0.28,0.28h-3.03c-0.16,0-0.28-0.13-0.28-0.28V13.2c0-2.35-0.84-3.51-2.46-3.51c-1.81,0-3.1,1.4-3.1,4.35v6.79
				C127.23,20.98,127.11,21.1,126.95,21.1z"/><path class="st2" d="M150.7,19.59c-1.27,1.24-2.62,1.89-4.43,1.89c-3.64,0-6.83-3.13-6.83-7.53c0-4.48,3.02-7.56,6.75-7.56
				c1.73,0,3.21,0.65,4.51,1.94V7.05c0-0.16,0.13-0.28,0.28-0.28h3.03c0.16,0,0.28,0.13,0.28,0.28v13.77c0,0.16-0.13,0.28-0.28,0.28
				h-3.03c-0.16,0-0.28-0.13-0.28-0.28V19.59z M143.06,13.92c0,2.46,1.62,4.26,3.86,4.26c2.21,0,3.94-1.67,3.94-4.29
				c0-2.51-1.67-4.21-3.94-4.21C144.55,9.69,143.06,11.58,143.06,13.92z"/><path class="st2" d="M168.61,19.59c-1.27,1.24-2.62,1.89-4.43,1.89c-3.64,0-6.83-3.13-6.83-7.53c0-4.48,3.02-7.56,6.75-7.56
				c1.52,0,2.85,0.5,4.03,1.51c0.19,0.16,0.47,0.04,0.47-0.21V1.52c0-0.16,0.13-0.28,0.28-0.28h3.03c0.16,0,0.28,0.13,0.28,0.28
				v19.3c0,0.16-0.13,0.28-0.28,0.28h-3.03c-0.16,0-0.28-0.13-0.28-0.28V19.59z M160.97,13.92c0,2.46,1.62,4.26,3.86,4.26
				c2.21,0,3.94-1.67,3.94-4.29c0-2.51-1.67-4.21-3.94-4.21C162.46,9.69,160.97,11.58,160.97,13.92z"/><path class="st2" d="M189.04,18.18c0.16,0.08,0.22,0.29,0.11,0.43c-1.51,1.99-3.49,2.87-6.38,2.87c-4.56,0-7.5-3.35-7.5-7.56
				c0-3.82,2.71-7.36,7.13-7.53c4.51-0.16,8.13,3.78,7.91,8.28c0,0.01,0,0.01,0,0.02c-0.01,0.15-0.13,0.27-0.28,0.27H179.1
				c-0.18,0-0.32,0.17-0.28,0.35c0.46,1.91,2.01,2.97,3.95,2.97c1.47,0,2.47-0.39,3.42-1.27c0.08-0.08,0.21-0.1,0.31-0.05
				L189.04,18.18z M186.31,12.14c0.19,0,0.34-0.2,0.27-0.38c-0.6-1.45-2.04-2.32-3.81-2.32c-1.64,0-2.94,0.76-3.69,2.3
				c-0.09,0.18,0.06,0.4,0.26,0.4H186.31z"/><path class="st2" d="M78.67,41.05c0,2.78-0.54,4.64-2.19,6.05c-1.3,1.08-3.02,1.59-5.21,1.59c-3.77,0-6.23-1.41-7.29-4.15
				c-0.07-0.18,0.07-0.39,0.27-0.39h3.44c0.08,0,0.15,0.03,0.2,0.09c0.73,0.8,1.78,1.15,3.24,1.15c1.32,0,2.4-0.35,3.05-0.94
				c0.72-0.67,0.86-1.46,0.88-2.48c0.01-0.24-0.27-0.39-0.46-0.23c-1.07,0.89-2.26,1.36-3.88,1.36c-3.86,0-6.88-3.08-6.88-7.37
				c0-4.43,3.05-7.34,6.69-7.34c1.78,0,3.19,0.67,4.53,1.94v-1.28c0-0.16,0.13-0.28,0.28-0.28h3.03c0.16,0,0.28,0.13,0.28,0.28
				V41.05z M67.47,35.76c0,2.38,1.7,4.05,3.94,4.05c2.21,0,3.86-1.59,3.86-4.02c0-2.32-1.54-4.1-3.91-4.1
				C68.98,31.69,67.47,33.55,67.47,35.76z"/><path class="st2" d="M95.42,40.18c0.16,0.08,0.22,0.29,0.11,0.43c-1.51,1.99-3.49,2.87-6.38,2.87c-4.56,0-7.5-3.35-7.5-7.56
				c0-3.82,2.71-7.36,7.13-7.53c4.51-0.16,8.13,3.78,7.91,8.28c0,0.01,0,0.01,0,0.02c-0.01,0.15-0.13,0.27-0.28,0.27H85.48
				c-0.18,0-0.32,0.17-0.28,0.35c0.46,1.91,2.01,2.97,3.95,2.97c1.47,0,2.47-0.39,3.42-1.27c0.08-0.08,0.21-0.1,0.31-0.05
				L95.42,40.18z M92.69,34.14c0.19,0,0.34-0.2,0.27-0.38c-0.6-1.45-2.04-2.32-3.81-2.32c-1.64,0-2.94,0.76-3.69,2.3
				c-0.09,0.18,0.06,0.4,0.26,0.4H92.69z"/><path class="st2" d="M110.84,41.59c-1.27,1.24-2.62,1.89-4.43,1.89c-3.64,0-6.83-3.13-6.83-7.53c0-4.48,3.02-7.56,6.75-7.56
				c1.73,0,3.21,0.65,4.51,1.94v-1.28c0-0.16,0.13-0.28,0.28-0.28h3.03c0.16,0,0.28,0.13,0.28,0.28v13.77
				c0,0.16-0.13,0.28-0.28,0.28h-3.03c-0.16,0-0.28-0.13-0.28-0.28V41.59z M103.2,35.92c0,2.46,1.62,4.26,3.86,4.26
				c2.21,0,3.94-1.67,3.94-4.29c0-2.51-1.67-4.21-3.94-4.21C104.68,31.69,103.2,33.58,103.2,35.92z"/><path class="st2" d="M121.15,30.58c0.68-1.48,1.84-2.19,3.02-2.19c0.76,0,1.21,0.22,1.57,0.38l-1.11,3.08
				c-0.27-0.13-0.67-0.3-1.05-0.3c-1.03,0-1.84,1.19-1.92,3.29c-0.03,0.78-0.03,1.67-0.03,2.46v5.52c0,0.16-0.13,0.28-0.28,0.28
				h-3.03c-0.16,0-0.28-0.13-0.28-0.28V29.05c0-0.16,0.13-0.28,0.28-0.28h2.54c0.16,0,0.28,0.13,0.28,0.28V30.58z"/><g><g><circle class="st2" cx="48.23" cy="43.53" r="5.23"/></g><path class="st2" d="M13.55,38.31c-2.88,0-5.23,2.35-5.23,5.23s2.35,5.23,5.23,5.23s5.23-2.35,5.23-5.23
					S16.44,38.31,13.55,38.31z"/><g><path class="st2" d="M18.85,39.99c0.66,0.99,1.06,2.18,1.08,3.45h10.89h11.03c0.02-1.28,0.42-2.46,1.08-3.45H18.85z"/><path class="st2" d="M1.68,39.99v1.73c0,0.95,0.77,1.72,1.72,1.72h3.77c0.02-1.28,0.42-2.46,1.08-3.45H1.68z"/><path class="st2" d="M54.61,43.44h3.74c0.95,0,1.72-0.77,1.72-1.72v-1.73h-6.54C54.19,40.98,54.59,42.16,54.61,43.44z"/></g><path class="st2" d="M58.39,22.53c0.95,0,1.72-0.77,1.72-1.72V8.49c0-0.95-0.77-1.72-1.72-1.72h-1.44v12.39
					c0,0.32-0.26,0.58-0.58,0.58c-0.32,0-0.58-0.26-0.58-0.58V6.77H25.37c-0.54,0-1.05,0.26-1.38,0.69L8.01,28.86
					c-0.04,0.06-0.09,0.12-0.15,0.17l-5.73,5.88c-0.14,0.15-0.27,0.32-0.34,0.51c-0.07,0.17-0.1,0.36-0.1,0.54v2.86h7.57
					c1.14-1.04,2.64-1.68,4.3-1.68s3.17,0.64,4.3,1.68h26.07c1.14-1.04,2.64-1.68,4.3-1.68s3.17,0.64,4.3,1.68h7.54V28.79
					c0-0.95-0.77-1.72-1.72-1.72h-1.41v-4.53H58.39z M24.04,16.28l-1.69,9.87c-0.09,0.53-0.5,0.96-1.03,1.07l-9.81,2.05
					c-0.7,0.15-1.2-0.65-0.78-1.22l9.55-12.78c0.25-0.33,0.64-0.53,1.06-0.53h1.4C23.55,14.73,24.17,15.47,24.04,16.28z
					 M55.78,27.06H29.47c-0.95,0-1.72-0.77-1.72-1.72v-8.89c0-0.95,0.77-1.72,1.72-1.72h17.37c0.49,0,0.94,0.23,1.23,0.62l4.87,6.55
					c0.29,0.39,0.74,0.62,1.23,0.62h1.61V27.06z"/></g><g><path class="st2" d="M130.38,28.52v0.38h-1.06v2.77h-0.43V28.9h-1.06v-0.38H130.38z"/><path class="st2" d="M130.76,28.52h0.61l0.91,2.66l0.9-2.66h0.61v3.15h-0.41v-1.86c0-0.06,0-0.17,0-0.32c0-0.15,0-0.31,0-0.48
					l-0.9,2.66h-0.42l-0.91-2.66v0.1c0,0.08,0,0.19,0.01,0.35c0,0.16,0.01,0.27,0.01,0.35v1.86h-0.41V28.52z"/></g></g></g></g><g id="_x32_0190702"><g id="Circle" class="st0"/></g></svg>